<mxfile host="app.diagrams.net" agent="Mozilla/5.0 (Windows NT 10.0; Win64; x64) AppleWebKit/537.36 (KHTML, like Gecko) Chrome/134.0.0.0 YaBrowser/25.4.0.0 Safari/537.36" version="27.0.1">
  <diagram name="Страница — 1" id="G6iAlGiieaQJDj8enInr">
    <mxGraphModel dx="929" dy="847" grid="1" gridSize="10" guides="1" tooltips="1" connect="1" arrows="1" fold="1" page="0" pageScale="1" pageWidth="827" pageHeight="1169" math="0" shadow="0">
      <root>
        <mxCell id="0" />
        <mxCell id="1" parent="0" />
        <mxCell id="gXZLADgQf5jywKPLBtd9-10" value="" style="edgeStyle=orthogonalEdgeStyle;rounded=0;orthogonalLoop=1;jettySize=auto;html=1;strokeColor=default;endArrow=none;startFill=0;" edge="1" parent="1" source="gXZLADgQf5jywKPLBtd9-1" target="gXZLADgQf5jywKPLBtd9-5">
          <mxGeometry relative="1" as="geometry" />
        </mxCell>
        <mxCell id="gXZLADgQf5jywKPLBtd9-12" style="edgeStyle=orthogonalEdgeStyle;rounded=0;orthogonalLoop=1;jettySize=auto;html=1;entryX=0;entryY=0.5;entryDx=0;entryDy=0;endArrow=none;startFill=0;" edge="1" parent="1" source="gXZLADgQf5jywKPLBtd9-1" target="gXZLADgQf5jywKPLBtd9-4">
          <mxGeometry relative="1" as="geometry" />
        </mxCell>
        <mxCell id="gXZLADgQf5jywKPLBtd9-1" value="Пользователь" style="shape=umlActor;verticalLabelPosition=bottom;verticalAlign=top;html=1;outlineConnect=0;" vertex="1" parent="1">
          <mxGeometry x="-310" y="290" width="30" height="60" as="geometry" />
        </mxCell>
        <mxCell id="gXZLADgQf5jywKPLBtd9-13" style="edgeStyle=orthogonalEdgeStyle;rounded=0;orthogonalLoop=1;jettySize=auto;html=1;entryX=0;entryY=0.5;entryDx=0;entryDy=0;endArrow=none;startFill=0;" edge="1" parent="1" source="gXZLADgQf5jywKPLBtd9-4" target="gXZLADgQf5jywKPLBtd9-6">
          <mxGeometry relative="1" as="geometry" />
        </mxCell>
        <mxCell id="gXZLADgQf5jywKPLBtd9-14" style="edgeStyle=orthogonalEdgeStyle;rounded=0;orthogonalLoop=1;jettySize=auto;html=1;entryX=0;entryY=0.5;entryDx=0;entryDy=0;endArrow=none;startFill=0;" edge="1" parent="1" source="gXZLADgQf5jywKPLBtd9-4" target="gXZLADgQf5jywKPLBtd9-7">
          <mxGeometry relative="1" as="geometry" />
        </mxCell>
        <mxCell id="gXZLADgQf5jywKPLBtd9-15" style="edgeStyle=orthogonalEdgeStyle;rounded=0;orthogonalLoop=1;jettySize=auto;html=1;entryX=0;entryY=0.5;entryDx=0;entryDy=0;endArrow=none;startFill=0;" edge="1" parent="1" source="gXZLADgQf5jywKPLBtd9-4" target="gXZLADgQf5jywKPLBtd9-8">
          <mxGeometry relative="1" as="geometry" />
        </mxCell>
        <mxCell id="gXZLADgQf5jywKPLBtd9-4" value="Авторизация" style="ellipse;whiteSpace=wrap;html=1;" vertex="1" parent="1">
          <mxGeometry x="-220" y="260" width="150" height="50" as="geometry" />
        </mxCell>
        <mxCell id="gXZLADgQf5jywKPLBtd9-5" value="Регистрация" style="ellipse;whiteSpace=wrap;html=1;" vertex="1" parent="1">
          <mxGeometry x="-220" y="340" width="150" height="50" as="geometry" />
        </mxCell>
        <mxCell id="gXZLADgQf5jywKPLBtd9-6" value="Выбрать необходимый тест" style="ellipse;whiteSpace=wrap;html=1;" vertex="1" parent="1">
          <mxGeometry x="-10" y="180" width="150" height="50" as="geometry" />
        </mxCell>
        <mxCell id="gXZLADgQf5jywKPLBtd9-7" value="Пройти выбранный тест" style="ellipse;whiteSpace=wrap;html=1;" vertex="1" parent="1">
          <mxGeometry x="-10" y="290" width="150" height="50" as="geometry" />
        </mxCell>
        <mxCell id="gXZLADgQf5jywKPLBtd9-8" value="Посмотреть свои результаты завершённых тестов" style="ellipse;whiteSpace=wrap;html=1;" vertex="1" parent="1">
          <mxGeometry x="-10" y="400" width="150" height="50" as="geometry" />
        </mxCell>
      </root>
    </mxGraphModel>
  </diagram>
</mxfile>
